<svg xmlns="http://www.w3.org/2000/svg" width="186.355" height="30.881" viewBox="0 0 186.355 30.881">
  <path id="Trazado_2" data-name="Trazado 2" d="M326.611,1044.236l1.4-4.981-11.026.708-5.446,19.836a5.914,5.914,0,0,0,5.225,6.707h14.058l1.261-4.692a3.714,3.714,0,0,1-1.505.442h-6.62a1.858,1.858,0,0,1-1.592-2.414l3.274-11.489h8.987l1.109-4.117Zm54.658.064h-10.1a6.528,6.528,0,0,1,.024,1.861l-4.914,18.752a3.925,3.925,0,0,1-.932,1.593H377.9a2.3,2.3,0,0,1-.221-1.482l3.565-13.769a1.876,1.876,0,0,1,1.725-1.22h6.355a6.465,6.465,0,0,1,2.057.664l1.8-6.419H385.01a4.776,4.776,0,0,0-3.741,2.59Zm-68.075.312s.308-.244.308-.4h-7.991a5.826,5.826,0,0,1-1,1.13l-6.729,4.915-2.589-4.605a3.2,3.2,0,0,1-.223-1.44H280.983a7.39,7.39,0,0,1,1.019,1.328c2.28,3.9,4.515,7.418,6.708,11.292l-13.195,9.563h7.327l8.081-5.689,2.657,4.626a4.707,4.707,0,0,1,.088,1.084l13.639-.021a2.022,2.022,0,0,1-.753-.929l-6.665-11.223Zm-79.983-3.674a1.174,1.174,0,0,1,1.019,1.593s-.731,3.122-1.24,4.893c-.022.11-.31.619-.731.619h-7.815l1.949-7.1Zm-3.277,12.33c1.085.088,1.152,1.219,1,1.948l-1.307,5.093a.935.935,0,0,1-.84.73l-7.683-.024c.554-2.633,1.44-5.134,2.037-7.747Zm9.83-17.643H214.925a5.245,5.245,0,0,1-.133,3.276c-1.394,5.27-6.354,24.374-6.354,24.374a14.152,14.152,0,0,1-1.615,3.231l29.111-.021c1.793-.244,3.852-1.638,4.272-3.187l2.059-7.682c.288-1.773-1.15-3.9-2.723-4.894a6.239,6.239,0,0,0,4.583-4.161l1.285-5.07c.6-2.28-1.75-5.866-5.646-5.866m24.527,20.035-1.549,5.843c-.089.377-.31.62-.576.62h-5.533a1.052,1.052,0,0,1-.951-1.393l1.041-4.1c.132-.443.683-.972.993-.972Zm7.329-11.36H250.168c-.574,1.4-1.593,4.075-1.593,4.075a2.484,2.484,0,0,1,.863-.374h15.717c.84,0,1.063,1.061.951,1.305l-.154,1.149c-.111.4-.354.82-.865.82H251.5c-2.147,0-4.87,1.993-5.247,3.521l-1.262,5.223c-.664,2.7,2.281,6.377,5,6.377h9.761a5.268,5.268,0,0,0,2.723-2.148l.4,2.148h10.693a6.513,6.513,0,0,1-.31-2.236l3.7-13.682c.752-2.678-1.971-6.178-5.334-6.178m82.882,4.209a1.272,1.272,0,0,1,1.062,1.749l-.753,2.657h-7.127l1-3.677a.9.9,0,0,1,.8-.729Zm6.264-4.273-18,.044a5.286,5.286,0,0,0-4.826,3.63l-3.077,11.712c-1,2.721,2.148,6.884,5.225,6.884h21.161l2.037-4.8a6.97,6.97,0,0,1-2.28.553H346.953a1.483,1.483,0,0,1-1.308-1.837l.866-3.21h18.22l1.637-6.4c.752-2.988-2.213-6.574-5.6-6.574" transform="translate(-206.823 -1035.625)" fill="#fff" fill-rule="evenodd"/>
</svg>
